<?xml version="1.0" standalone="no"?>
<!DOCTYPE svg PUBLIC "-//W3C//DTD SVG 20010904//EN"
 "http://www.w3.org/TR/2001/REC-SVG-20010904/DTD/svg10.dtd">
<svg version="1.0" xmlns="http://www.w3.org/2000/svg"
 width="1200.000000pt" height="1200.000000pt" viewBox="0 0 1200.000000 1200.000000"
 preserveAspectRatio="xMidYMid meet">
<metadata>
Created by potrace 1.11, written by Peter Selinger 2001-2013
</metadata>
<g transform="translate(0.000000,1200.000000) scale(0.100000,-0.100000)"
fill="#000000" stroke="none">
<path d="M6481 11826 c-6 -8 -14 -31 -17 -52 -6 -51 -12 -54 -104 -59 -37 -1
-79 15 -119 46 -27 22 -74 25 -88 7 -27 -35 -14 -152 27 -246 23 -51 17 -61
-34 -57 -17 2 -65 6 -106 9 -41 3 -108 12 -149 20 -79 15 -108 14 -127 -6 -22
-22 13 -75 118 -180 l98 -96 -53 -11 c-176 -38 -209 -75 -99 -116 72 -27 183
-84 227 -118 49 -38 123 -116 130 -139 8 -24 122 -93 193 -116 33 -11 80 -19
106 -18 42 2 44 1 30 -15 -9 -10 -18 -36 -21 -58 l-6 -41 -542 0 -543 0 -7 28
c-9 36 -50 89 -75 97 -34 11 -23 20 53 45 59 20 93 24 187 24 125 0 178 -11
234 -49 85 -58 131 -16 87 80 -17 37 -145 175 -162 175 -4 0 -14 6 -21 14 -20
20 -103 60 -166 81 l-54 17 34 28 c83 68 133 125 153 173 15 36 15 38 -8 61
-20 20 -30 23 -63 17 -61 -11 -157 6 -194 34 -38 29 -187 86 -272 105 -71 15
-121 19 -211 17 -100 -3 -117 -1 -118 12 -4 102 -27 165 -61 175 -29 7 -75
-27 -92 -68 -15 -36 -47 -54 -179 -101 -147 -52 -277 -157 -329 -267 -49 -103
-135 -178 -223 -193 -62 -10 -224 -66 -284 -97 -30 -15 -56 -26 -57 -25 -2 1
1 19 5 39 21 91 -30 198 -116 242 -43 22 -121 28 -170 13 -49 -15 -125 -91
-140 -140 -26 -87 8 -198 77 -247 l30 -22 -22 -31 c-39 -55 -172 -182 -220
-211 -40 -23 -56 -27 -110 -24 l-63 3 -1 45 c-5 121 -41 234 -93 284 l-27 26
-23 -22 c-12 -13 -39 -48 -59 -79 -57 -88 -145 -187 -205 -233 -32 -25 -39
-26 -160 -26 l-127 0 1 -151 1 -150 -41 -42 c-22 -23 -49 -53 -60 -67 l-19
-25 -60 62 c-35 35 -72 64 -89 67 -70 15 -73 15 -88 -8 -11 -17 -12 -30 -4
-57 29 -100 0 -231 -78 -345 -68 -99 -104 -196 -119 -314 -3 -24 -7 -46 -9
-48 -2 -2 -22 6 -45 18 -22 11 -77 26 -121 33 -70 10 -89 9 -147 -6 -37 -10
-77 -25 -90 -33 -36 -24 -26 -61 28 -102 86 -66 114 -123 150 -307 22 -113 86
-197 187 -246 24 -11 43 -24 43 -27 0 -16 -43 -119 -67 -161 -35 -61 -129
-195 -147 -210 -11 -10 -15 -9 -20 6 -4 10 -26 40 -50 67 -24 27 -49 66 -55
86 -6 20 -29 57 -51 82 -126 144 -356 108 -436 -69 -31 -69 -28 -168 7 -228
45 -79 123 -131 209 -139 37 -4 64 1 149 25 10 3 19 -15 32 -61 41 -152 10
-314 -83 -432 l-28 -36 -58 56 c-31 31 -57 64 -58 72 -15 186 -91 369 -199
476 -57 55 -140 104 -171 98 -80 -15 -104 -54 -73 -123 10 -24 27 -55 38 -69
22 -32 34 -97 36 -207 2 -99 -6 -137 -50 -228 -33 -71 -43 -105 -44 -160 -1
-27 -1 -27 -31 -12 -16 8 -38 15 -49 15 -39 0 -52 -64 -30 -143 5 -21 12 -57
14 -80 7 -77 6 -291 -2 -347 -10 -68 -10 -207 -1 -278 7 -50 6 -53 -12 -47
-62 20 -205 -1 -282 -41 -88 -46 -103 -129 -30 -169 86 -46 163 -147 224 -295
79 -193 225 -337 387 -384 30 -9 67 -16 82 -16 36 0 41 -10 45 -84 6 -113 26
-244 44 -292 9 -23 9 -22 -53 7 -34 16 -78 32 -98 35 -28 5 -40 14 -54 41 -46
85 -152 139 -254 130 -69 -5 -115 -26 -165 -73 -109 -103 -109 -272 0 -381
105 -105 241 -109 367 -10 l38 30 52 -24 c112 -52 228 -198 271 -342 l14 -48
-34 22 c-99 61 -235 113 -327 124 -47 6 -58 4 -75 -13 -15 -15 -19 -29 -16
-54 8 -54 33 -125 66 -186 58 -107 88 -167 88 -181 0 -21 -93 -7 -154 24 -28
14 -77 51 -110 81 -66 61 -106 71 -128 32 -15 -30 -17 -168 -2 -238 29 -134
95 -295 190 -470 29 -52 52 -95 51 -96 -1 -1 -24 -5 -51 -8 -61 -9 -75 -16
-115 -61 -44 -50 -41 -79 9 -99 22 -9 47 -16 55 -16 25 0 121 -47 187 -91 120
-80 217 -195 269 -317 21 -50 46 -84 110 -150 89 -90 183 -162 244 -188 34
-14 36 -17 22 -32 -30 -34 -51 -116 -54 -214 -2 -82 1 -109 22 -169 37 -110
111 -211 210 -285 50 -37 75 -49 150 -73 58 -17 59 -18 30 -26 -84 -22 -187
-114 -179 -162 1 -7 2 -20 3 -28 2 -21 71 -65 102 -65 29 0 149 -39 200 -65
19 -10 58 -38 87 -62 58 -47 88 -59 126 -49 27 7 28 25 5 68 -15 28 -14 140 2
169 7 14 17 19 30 16 23 -6 26 16 5 35 -12 11 -10 18 12 48 13 19 39 44 56 55
17 11 32 29 34 41 4 29 -60 62 -119 60 l-45 -1 65 79 c36 43 75 90 87 104 19
23 23 24 57 13 41 -14 92 -68 114 -119 14 -34 11 -44 -27 -82 -40 -40 -131
-153 -145 -180 -41 -78 -56 -248 -30 -334 50 -167 164 -269 380 -341 174 -59
294 -123 398 -215 50 -44 222 -155 362 -233 153 -85 568 -287 590 -287 3 0 24
-9 48 -19 353 -160 958 -327 1437 -397 39 -6 299 -34 355 -39 178 -15 562 -21
710 -10 142 10 222 16 250 19 17 2 59 7 95 11 125 13 436 67 583 101 422 99
806 236 1208 432 127 62 189 95 344 182 154 86 430 263 541 346 90 68 142 88
254 100 69 8 126 32 204 88 151 108 215 266 182 446 -10 54 -32 124 -50 158
-13 25 -105 139 -154 190 -7 8 -24 29 -38 48 l-26 33 22 31 c26 37 98 80 133
80 15 0 27 -3 27 -7 0 -5 14 -24 31 -43 17 -19 37 -46 45 -60 9 -14 33 -38 55
-54 21 -16 38 -31 36 -32 -1 -1 -21 -4 -44 -8 -46 -6 -88 -28 -97 -52 -6 -15
26 -54 44 -54 18 0 71 -83 60 -94 -5 -5 -10 -18 -10 -29 0 -14 5 -17 19 -12
24 7 34 -18 36 -91 1 -27 5 -56 10 -64 5 -8 4 -11 -2 -7 -12 8 -38 -66 -29
-82 18 -28 95 -4 156 50 59 52 215 119 278 119 36 0 100 44 108 74 3 14 -1 37
-10 55 -23 44 -110 109 -163 122 l-44 12 50 17 c117 39 293 220 354 365 50
119 42 256 -23 360 l-19 32 52 21 c67 28 152 93 249 188 64 64 86 94 127 178
56 114 120 192 220 268 74 55 187 112 243 122 20 4 46 15 59 24 28 24 20 52
-32 102 -31 30 -48 38 -90 43 -28 4 -54 8 -56 11 -2 2 14 37 37 78 153 268
230 519 208 671 -13 95 -49 101 -136 23 -88 -78 -141 -107 -211 -113 l-60 -6
12 34 c7 19 30 65 52 103 53 95 87 182 93 237 4 42 2 49 -21 64 -22 14 -34 15
-86 5 -33 -6 -84 -19 -115 -30 -57 -19 -191 -84 -214 -103 -32 -26 30 138 79
210 44 63 103 119 163 153 l49 29 41 -35 c108 -93 311 -76 407 34 47 53 69
112 70 182 2 146 -123 270 -270 270 -44 0 -125 -21 -167 -43 -32 -16 -94 -80
-114 -116 -6 -12 -16 -21 -23 -21 -7 0 -40 -13 -75 -30 -53 -25 -62 -27 -58
-12 28 95 42 198 45 323 1 50 3 55 24 55 119 3 262 75 355 180 53 60 98 136
155 265 46 103 118 195 188 241 28 18 55 43 60 56 13 33 -13 87 -53 112 -76
47 -208 72 -286 55 l-33 -7 7 74 c10 100 9 181 -3 261 -14 99 -6 397 11 426 3
4 8 28 11 52 5 36 2 50 -14 70 -20 25 -20 25 -92 -5 -12 -5 -16 2 -17 36 -3
53 -17 97 -52 168 -32 63 -41 107 -41 201 -1 101 18 183 52 235 40 59 48 113
21 137 -30 27 -92 33 -133 12 -156 -80 -275 -285 -304 -527 -6 -47 -12 -60
-34 -74 -28 -18 -49 -41 -67 -70 -10 -17 -13 -17 -37 11 -43 49 -87 141 -101
208 -15 72 -12 177 6 233 11 33 18 39 38 37 14 -2 43 -4 65 -6 51 -5 149 18
190 43 62 38 109 102 124 165 26 117 -36 247 -145 301 -56 28 -192 25 -254 -4
-85 -41 -131 -97 -155 -188 -8 -32 -19 -60 -23 -63 -5 -3 -16 -19 -24 -34
l-15 -29 -44 50 c-57 63 -132 189 -163 273 l-25 66 49 22 c105 47 168 142 195
288 25 140 57 201 135 257 62 45 72 72 36 103 -62 53 -228 65 -332 23 -32 -13
-62 -28 -66 -34 -3 -5 -9 8 -12 30 -23 150 -65 266 -120 331 -68 80 -106 229
-85 333 15 76 9 90 -36 90 -51 0 -106 -32 -156 -90 l-44 -51 -19 28 c-25 35
-103 113 -114 113 -4 0 -7 64 -7 143 l0 142 -232 3 -232 2 -22 31 c-34 48
-167 157 -208 170 -57 19 -166 94 -246 169 -62 59 -80 70 -108 70 -23 0 -42
-8 -60 -25 -47 -47 -46 -125 3 -218 28 -53 60 -152 60 -184 0 -7 -10 -13 -23
-13 -16 0 -34 14 -57 45 -40 53 -81 83 -170 121 -164 71 -304 185 -355 287
-37 77 -39 112 -9 164 19 31 26 58 27 100 3 195 -222 289 -366 154 -56 -52
-77 -143 -50 -217 26 -72 27 -74 7 -70 -11 2 -41 7 -67 10 -54 8 -200 72 -235
104 -12 11 -35 38 -50 60 -64 94 -157 174 -267 230 -96 49 -136 63 -195 68
-118 10 -274 75 -376 158 -58 48 -84 56 -103 32z m1080 -937 c9 -4 21 -14 28
-22 10 -12 5 -16 -26 -22 -110 -20 -176 -98 -177 -207 l-1 -58 -194 0 -193 0
48 33 c62 42 118 81 124 87 12 12 189 149 213 165 59 38 131 48 178 24z
m-3193 -139 c50 -23 123 -79 171 -132 l33 -38 -114 0 -115 0 -6 45 c-8 54 -22
80 -67 124 l-35 34 45 -7 c24 -4 64 -16 88 -26z m3697 -90 c34 -16 71 -41 85
-55 l23 -25 -189 0 -190 0 4 37 c6 47 18 59 73 71 64 13 126 4 194 -28z
m-4191 -11 c31 -1 59 -5 61 -8 2 -3 1 -18 -2 -34 l-5 -27 -202 1 c-180 1 -198
2 -171 15 64 29 234 68 256 58 3 -2 31 -4 63 -5z m6282 -2047 c24 -4 184 -271
184 -308 0 -8 -21 -10 -67 -6 -61 4 -73 9 -110 42 -90 79 -225 81 -309 4 -20
-19 -37 -34 -38 -34 0 0 -1 47 -1 105 l0 105 30 20 c79 53 154 77 235 75 36
-1 70 -2 76 -3z m-8166 -13 c25 -5 72 -23 105 -40 l60 -30 -2 -82 c-1 -45 -2
-92 -2 -105 -1 -22 -2 -23 -18 -6 -31 31 -105 57 -159 56 -57 0 -118 -27 -165
-71 -22 -22 -40 -29 -70 -29 -22 -1 -54 -4 -70 -7 l-29 -7 15 41 c19 54 28 71
98 183 34 54 68 99 77 102 30 8 116 5 160 -5z m8371 -570 c55 -35 96 -78 161
-169 64 -90 102 -169 99 -206 -1 -17 3 -42 8 -55 5 -15 -25 10 -78 61 -88 88
-248 202 -356 255 -33 16 -62 30 -64 32 -2 1 11 17 30 35 19 18 41 46 49 62
14 26 17 28 59 22 24 -3 66 -20 92 -37z m-427 -99 c25 -7 66 -10 91 -7 42 4
48 2 69 -27 46 -59 55 -158 31 -321 -7 -47 -7 -254 0 -265 10 -17 -7 -11 -63
19 -49 28 -69 34 -133 45 -56 9 -86 -42 -67 -112 9 -32 66 -160 105 -235 l14
-28 -48 5 c-26 2 -79 5 -116 5 l-69 1 6 28 c3 15 8 50 11 77 3 28 8 64 10 80
2 17 7 66 10 110 4 44 8 90 10 103 7 42 18 316 19 462 l1 145 36 -36 c22 -21
55 -41 83 -49z m-7779 -135 c8 -280 22 -495 42 -630 9 -68 20 -160 19 -161 -3
-4 -206 -11 -206 -8 0 2 4 12 9 22 96 182 132 302 98 331 -34 28 -111 17 -197
-29 l-55 -29 1 124 c0 68 -4 159 -10 202 -19 135 -8 219 38 276 20 25 30 29
87 30 64 3 126 25 150 53 7 8 13 13 15 11 2 -1 6 -88 9 -192z m7650 -1108 c22
-34 56 -91 74 -127 82 -158 203 -271 379 -355 l63 -30 -93 0 c-138 0 -215 -40
-276 -145 -37 -63 -41 -165 -8 -236 69 -149 224 -196 399 -121 l49 20 64 -31
c151 -75 226 -195 224 -362 0 -106 -4 -125 -20 -122 -53 12 -83 -35 -79 -130
3 -108 0 -138 -15 -132 -8 3 -25 29 -37 57 -21 48 -23 66 -24 224 0 94 -3 174
-7 178 -3 4 -27 3 -52 0 -36 -6 -55 -17 -95 -56 -52 -51 -110 -132 -151 -211
-27 -52 -37 -51 -64 6 -23 48 -123 186 -159 220 -17 16 -47 35 -66 43 -31 13
-36 13 -60 -5 -28 -21 -28 -23 -18 -180 5 -86 -7 -161 -35 -216 -21 -43 -76
-106 -91 -106 -5 0 -27 15 -50 34 -56 45 -136 93 -169 101 -23 6 -28 3 -33
-17 -18 -71 -23 -216 -22 -600 0 -235 -1 -429 -4 -431 -2 -2 -25 -11 -51 -21
-90 -33 -147 -86 -173 -164 -9 -24 -15 -32 -19 -22 -3 8 -11 29 -17 45 -7 17
-12 68 -13 115 -1 98 -21 146 -82 200 -165 144 -424 28 -424 -190 0 -133 98
-239 237 -256 26 -3 51 -11 56 -17 6 -10 5 -63 -2 -139 -1 -3 -44 -27 -97 -53
-253 -123 -362 -356 -232 -495 50 -55 69 -65 121 -66 46 -2 55 -6 84 -40 68
-78 32 -123 -103 -130 -91 -4 -139 -14 -207 -43 l-42 -18 -1 36 c-5 140 -3
191 9 226 14 40 12 65 -6 76 -30 20 -152 -33 -241 -106 -44 -35 -56 -41 -57
-28 -1 10 -1 83 -1 163 0 167 -16 266 -49 292 -19 16 -24 16 -57 3 -67 -27
-223 -219 -328 -402 l-18 -33 -29 35 c-18 22 -37 35 -53 35 -38 0 -99 -68
-118 -131 -24 -79 -49 -114 -181 -252 -115 -119 -259 -273 -324 -347 l-31 -35
-25 32 c-28 35 -84 58 -120 49 -31 -8 -107 -94 -134 -151 -24 -52 -49 -143
-53 -193 -3 -39 -15 -47 -83 -56 -27 -3 -61 -8 -75 -11 -33 -5 -142 -14 -265
-21 -103 -5 -107 -2 -35 32 45 22 542 363 560 385 3 3 46 36 95 74 91 70 345
277 400 326 17 15 41 37 55 49 131 112 490 463 630 616 128 139 264 298 417
488 138 171 456 633 542 786 30 54 82 145 122 215 109 192 289 577 374 800 70
183 170 481 191 568 2 9 6 25 9 35 37 140 68 266 86 347 11 55 22 107 24 115
2 8 7 36 10 62 l8 47 25 -20 c14 -11 44 -48 67 -82z m-7531 -12 c17 -92 29
-145 66 -290 47 -188 42 -167 75 -280 249 -849 714 -1700 1344 -2460 118 -141
132 -158 255 -294 136 -149 504 -508 668 -652 300 -263 603 -497 893 -689 94
-62 182 -121 197 -131 15 -11 32 -19 37 -19 5 0 13 -5 16 -11 8 -12 -124 -5
-295 17 -25 4 -61 8 -81 10 -20 2 -53 7 -74 12 -37 7 -39 10 -43 47 -4 55 -39
162 -67 210 -27 46 -82 107 -108 121 -33 19 -85 4 -126 -36 l-40 -39 -37 42
c-87 98 -275 295 -352 371 -70 67 -132 143 -137 166 -26 110 -86 187 -144 182
-30 -2 -50 -19 -62 -50 -9 -23 -13 -18 -65 64 -89 142 -143 214 -214 285 -75
76 -119 94 -151 62 -32 -31 -48 -149 -45 -320 l2 -152 -40 32 c-23 17 -47 38
-55 45 -26 25 -132 72 -175 78 -54 8 -61 -5 -42 -86 12 -50 15 -194 4 -205 -1
-2 -28 3 -58 12 -30 8 -99 16 -152 17 -142 5 -176 35 -128 114 20 33 30 36
105 33 76 -4 164 51 185 115 27 80 -20 212 -108 306 -51 55 -179 143 -257 177
-82 35 -80 33 -81 96 -2 91 -1 93 64 90 140 -6 263 110 263 247 0 98 -38 171
-116 221 -108 68 -228 54 -321 -38 -51 -51 -74 -114 -69 -190 3 -43 -1 -65
-16 -88 -10 -18 -19 -40 -19 -49 0 -10 -5 -18 -11 -18 -5 0 -8 4 -5 8 11 18
-16 85 -49 121 -35 38 -109 81 -141 81 -18 0 -19 7 -14 102 7 148 4 774 -4
833 -4 28 -12 64 -17 82 -10 30 -12 31 -37 21 -35 -16 -151 -89 -181 -117 -13
-11 -27 -21 -31 -21 -11 0 -78 75 -93 105 -35 70 -45 188 -27 300 8 48 7 63
-5 82 -33 51 -89 37 -161 -39 -42 -44 -127 -165 -159 -227 l-17 -34 -40 69
c-86 150 -163 231 -239 252 -57 15 -64 6 -60 -95 7 -202 1 -263 -29 -323 -20
-39 -39 -58 -42 -43 0 4 -2 54 -3 110 -2 119 -16 153 -65 153 -24 0 -30 4 -31
23 0 12 -3 42 -5 66 -7 61 12 164 41 221 34 67 94 126 171 166 76 40 82 40
132 15 78 -40 194 -30 271 23 174 121 137 405 -61 472 -50 16 -115 21 -160 10
-46 -11 -32 2 40 36 158 74 286 197 371 355 29 54 74 126 99 160 l47 61 7 -36
c3 -20 9 -50 12 -67z m-766 -685 c-7 -22 -18 -33 -39 -37 -16 -3 -65 -29 -109
-58 -44 -29 -80 -49 -80 -44 0 5 7 36 17 69 l16 59 57 0 c37 -1 72 6 101 19
24 11 45 21 46 21 1 1 -3 -13 -9 -29z m8986 21 c8 -12 77 -24 136 -25 l45 -1
17 -69 c10 -38 16 -71 15 -72 -2 -2 -17 10 -34 26 -30 29 -125 81 -170 95 -13
3 -23 10 -23 15 0 5 -3 15 -6 24 -6 17 11 22 20 7z m-7745 -2462 c-20 -12 -22
-4 -7 37 l13 38 3 -34 c2 -19 -2 -36 -9 -41z m6488 26 l31 -43 -31 3 c-18 2
-35 4 -39 4 -5 1 -7 19 -6 41 1 22 4 40 7 39 3 0 20 -20 38 -44z"/>
</g>
</svg>
